<?xml version="1.0" encoding="UTF-8"?>
<svg width="24" height="24" viewBox="0 0 24 24" xmlns="http://www.w3.org/2000/svg" style="image-rendering: pixelated;">
  <!-- Frame 5: Fading sparkles -->
  <rect width="24" height="24" fill="none"/>
  
  <!-- No central core -->
  
  <!-- Fading rays -->
  <rect x="11" y="5" width="2" height="2" fill="#FF6B35" opacity="0.6"/>
  <rect x="11" y="17" width="2" height="2" fill="#FF6B35" opacity="0.6"/>
  <rect x="5" y="11" width="2" height="2" fill="#FF6B35" opacity="0.6"/>
  <rect x="17" y="11" width="2" height="2" fill="#FF6B35" opacity="0.6"/>
  
  <!-- Scattered sparkles -->
  <rect x="7" y="7" width="1" height="1" fill="#FFFF00" opacity="0.7"/>
  <rect x="16" y="7" width="1" height="1" fill="#FFFF00" opacity="0.7"/>
  <rect x="7" y="16" width="1" height="1" fill="#FFFF00" opacity="0.7"/>
  <rect x="16" y="16" width="1" height="1" fill="#FFFF00" opacity="0.7"/>
  <rect x="12" y="3" width="1" height="1" fill="#FFA500" opacity="0.5"/>
  <rect x="12" y="20" width="1" height="1" fill="#FFA500" opacity="0.5"/>
  <rect x="3" y="12" width="1" height="1" fill="#FFA500" opacity="0.5"/>
  <rect x="20" y="12" width="1" height="1" fill="#FFA500" opacity="0.5"/>
  
  <!-- Final particles -->
  <rect x="9" y="9" width="1" height="1" fill="#FF69B4" opacity="0.4"/>
  <rect x="14" y="9" width="1" height="1" fill="#FF69B4" opacity="0.4"/>
  <rect x="9" y="14" width="1" height="1" fill="#FF69B4" opacity="0.4"/>
  <rect x="14" y="14" width="1" height="1" fill="#FF69B4" opacity="0.4"/>
</svg>
