<?xml version="1.0" encoding="UTF-8"?>
<svg width="24" height="24" viewBox="0 0 24 24" xmlns="http://www.w3.org/2000/svg" style="image-rendering: pixelated;">
  <!-- Frame 3: Medium burst -->
  <rect width="24" height="24" fill="none"/>
  
  <!-- Central core -->
  <rect x="11" y="11" width="2" height="2" fill="#FFFFFF"/>
  <rect x="10" y="10" width="1" height="1" fill="#FFD700"/>
  <rect x="13" y="10" width="1" height="1" fill="#FFD700"/>
  <rect x="10" y="13" width="1" height="1" fill="#FFD700"/>
  <rect x="13" y="13" width="1" height="1" fill="#FFD700"/>
  
  <!-- Medium rays -->
  <rect x="11" y="6" width="2" height="2" fill="#FF6B35"/>
  <rect x="11" y="16" width="2" height="2" fill="#FF6B35"/>
  <rect x="6" y="11" width="2" height="2" fill="#FF6B35"/>
  <rect x="16" y="11" width="2" height="2" fill="#FF6B35"/>
  
  <!-- Diagonal rays -->
  <rect x="8" y="8" width="1" height="1" fill="#FFA500"/>
  <rect x="15" y="8" width="1" height="1" fill="#FFA500"/>
  <rect x="8" y="15" width="1" height="1" fill="#FFA500"/>
  <rect x="15" y="15" width="1" height="1" fill="#FFA500"/>
  
  <!-- Outer sparkles -->
  <rect x="7" y="7" width="1" height="1" fill="#FFFF00"/>
  <rect x="16" y="7" width="1" height="1" fill="#FFFF00"/>
  <rect x="7" y="16" width="1" height="1" fill="#FFFF00"/>
  <rect x="16" y="16" width="1" height="1" fill="#FFFF00"/>
</svg>
