<?xml version="1.0" encoding="UTF-8"?>
<svg width="24" height="24" viewBox="0 0 24 24" xmlns="http://www.w3.org/2000/svg" style="image-rendering: pixelated;">
  <!-- Frame 4: Large burst -->
  <rect width="24" height="24" fill="none"/>
  
  <!-- Central core (slightly dimmer) -->
  <rect x="11" y="11" width="2" height="2" fill="#FFD700"/>
  
  <!-- Large rays -->
  <rect x="11" y="3" width="2" height="3" fill="#FF6B35"/>
  <rect x="11" y="18" width="2" height="3" fill="#FF6B35"/>
  <rect x="3" y="11" width="3" height="2" fill="#FF6B35"/>
  <rect x="18" y="11" width="3" height="2" fill="#FF6B35"/>
  
  <!-- Diagonal rays -->
  <rect x="6" y="6" width="2" height="2" fill="#FFA500"/>
  <rect x="16" y="6" width="2" height="2" fill="#FFA500"/>
  <rect x="6" y="16" width="2" height="2" fill="#FFA500"/>
  <rect x="16" y="16" width="2" height="2" fill="#FFA500"/>
  
  <!-- Many sparkles -->
  <rect x="4" y="4" width="1" height="1" fill="#FFFF00"/>
  <rect x="19" y="4" width="1" height="1" fill="#FFFF00"/>
  <rect x="4" y="19" width="1" height="1" fill="#FFFF00"/>
  <rect x="19" y="19" width="1" height="1" fill="#FFFF00"/>
  <rect x="11" y="1" width="2" height="1" fill="#FFFF00"/>
  <rect x="11" y="22" width="2" height="1" fill="#FFFF00"/>
  <rect x="1" y="11" width="1" height="2" fill="#FFFF00"/>
  <rect x="22" y="11" width="1" height="2" fill="#FFFF00"/>
  
  <!-- Additional particles -->
  <rect x="9" y="5" width="1" height="1" fill="#FF69B4"/>
  <rect x="14" y="5" width="1" height="1" fill="#FF69B4"/>
  <rect x="9" y="18" width="1" height="1" fill="#FF69B4"/>
  <rect x="14" y="18" width="1" height="1" fill="#FF69B4"/>
  <rect x="5" y="9" width="1" height="1" fill="#FF69B4"/>
  <rect x="18" y="9" width="1" height="1" fill="#FF69B4"/>
  <rect x="5" y="14" width="1" height="1" fill="#FF69B4"/>
  <rect x="18" y="14" width="1" height="1" fill="#FF69B4"/>
</svg>
